<svg width="33" height="33" viewBox="0 0 33 33" fill="none" xmlns="http://www.w3.org/2000/svg">
<g clip-path="url(#clip0_1029_872)">
<path d="M32.2744 15.9977C32.1201 7.16253 24.8327 0.125137 15.9976 0.279355C7.16241 0.433574 0.12502 7.721 0.279238 16.5562C0.418613 24.5409 6.38425 31.0572 14.053 32.1238L13.8579 20.9448L9.79602 21.0157L9.7153 16.3915L13.7772 16.3206L13.7157 12.7961C13.6457 8.7867 15.9954 6.53035 19.6496 6.46656C21.3998 6.43601 23.236 6.71651 23.236 6.71651L23.3047 10.6534L21.2875 10.6886C19.3002 10.7233 18.702 11.9673 18.724 13.2325L18.7764 16.2333L23.2132 16.1558L22.5847 20.7925L18.8571 20.8576L19.0523 32.0365C26.6792 30.7029 32.4137 23.9826 32.2744 15.9977Z" fill="#1877F2"/>
<path d="M22.5845 20.7922L23.213 16.1555L18.7762 16.2329L18.7238 13.2321C18.7017 11.9668 19.3 10.723 21.2873 10.6883L23.3045 10.6531L23.2358 6.71615C23.2358 6.71615 21.3996 6.43565 19.6493 6.46621C15.9952 6.52999 13.6455 8.78634 13.7154 12.7957L13.777 16.3202L9.71508 16.3911L9.7958 21.0154L13.8577 20.9445L14.0528 32.1234C14.882 32.2385 15.7188 32.2889 16.5558 32.2741C17.3928 32.2597 18.2274 32.1802 19.052 32.0362L18.8569 20.8572L22.5845 20.7922Z" fill="white"/>
</g>
<defs>
<clipPath id="clip0_1029_872">
<rect width="32" height="32" fill="white" transform="translate(0 0.558594) rotate(-0.999999)"/>
</clipPath>
</defs>
</svg>
