<svg width="230" height="331" viewBox="0 0 230 331" fill="none" xmlns="http://www.w3.org/2000/svg">
<path d="M197.967 329.852V285.904C197.967 285.904 214.835 317.062 197.967 329.852Z" fill="#F1F1F1"/>
<path d="M199.009 329.844L167.124 300.123C167.124 300.123 201.136 308.577 199.009 329.844Z" fill="#F1F1F1"/>
<path d="M124.25 321.524L116.914 321.523L113.425 292.795L124.251 292.796L124.25 321.524Z" fill="#9F616A"/>
<path d="M126.12 328.746L102.467 328.745V328.441C102.467 325.962 103.437 323.585 105.164 321.832C106.89 320.079 109.232 319.094 111.674 319.094L126.12 319.094L126.12 328.746Z" fill="#2F2E41"/>
<path d="M68.5222 321.282L61.4355 319.358L65.3726 290.689L75.8315 293.529L68.5222 321.282Z" fill="#9F616A"/>
<path d="M68.4929 328.747L45.6431 322.543L45.7203 322.249C46.3511 319.854 47.893 317.812 50.0068 316.571C52.1207 315.331 54.6333 314.993 56.9921 315.634L70.9485 319.423L68.4929 328.747Z" fill="#2F2E41"/>
<path d="M128.469 160.527L134.614 167.775L126.667 315.064H109.694L101.136 201.731L74.6019 318.104L56.9558 313.709L73.0007 165.9L128.469 160.527Z" fill="#2F2E41"/>
<path d="M77.1027 65.4312L94.0032 56.8242L119.993 57.2881L142.359 68.9083L129.634 133.435L135.131 167.079C113.885 172.581 91.6418 172.767 70.3098 167.621L70.1396 167.58C70.1396 167.58 82.7728 122.067 77.3948 108.178L77.1027 65.4312Z" fill="#CBCBCB"/>
<path d="M125.996 31.0459C125.977 25.8958 123.947 20.9637 120.35 17.3321C116.753 13.7006 111.885 11.6663 106.812 11.6758C101.74 11.6853 96.8789 13.7379 93.2955 17.383C89.7122 21.028 87.6997 25.9677 87.6997 31.1179C87.6997 36.268 89.7122 41.2077 93.2955 44.8528C96.8789 48.4978 101.74 50.5504 106.812 50.5599C111.885 50.5695 116.753 48.5352 120.35 44.9036C123.947 41.272 125.977 36.3399 125.996 31.1898C125.996 31.1419 125.996 31.0939 125.996 31.0459Z" fill="#9F616A"/>
<path d="M98.2738 19.9323C99.2655 18.9844 100.572 18.4494 101.934 18.4332C103.979 18.3657 107.045 19.1033 108.349 20.792C109.398 22.1491 109.448 24.0163 109.452 25.7412L109.463 30.5016C109.466 31.9099 109.483 33.3784 110.113 34.633C110.743 35.8877 112.19 36.8406 113.512 36.4129C115.079 35.9056 115.769 33.7899 117.371 33.4095C118.574 33.1238 119.81 34.0166 120.336 35.1519C120.78 36.3289 120.927 37.5999 120.764 38.8493C120.613 41.342 117.092 42.3308 116.593 44.7763C116.305 46.191 115.295 49.0129 116.593 48.4215C122.577 47.8139 125.203 44.2655 127.941 40.9251L134.118 33.3913C134.823 32.6433 135.365 31.7526 135.708 30.7775C135.862 30.0944 135.917 29.3924 135.872 28.6933C135.838 26.8207 135.788 24.9487 135.721 23.0772C135.663 21.442 135.258 19.3788 133.681 19.0428C132.861 18.868 131.775 19.1728 131.341 18.4445C131.179 18.0794 131.152 17.6668 131.267 17.2835C131.615 15.4146 132.203 13.4598 131.597 11.6599C130.683 8.94547 127.537 7.83161 124.757 7.31948C121.978 6.80735 118.857 6.36675 117.112 4.11061C116.645 3.36144 116.138 2.63845 115.595 1.94481C114.794 1.20591 113.811 0.702268 112.75 0.487928C109.299 -0.39881 105.654 -0.0703317 102.41 1.41964C101.066 2.04268 99.715 2.88168 98.2399 2.78675C96.7076 2.68814 95.3988 1.59325 93.8861 1.32688C91.4427 0.896626 89.1068 2.75532 87.9026 4.95654C86.4106 7.68406 86.2737 11.4192 88.3814 13.6895C89.433 14.8222 91.0019 15.6002 91.4386 17.0923C91.6163 17.6996 91.5751 18.3537 91.7323 18.9669C91.9154 19.5772 92.2647 20.1226 92.7399 20.54C93.2151 20.9575 93.7968 21.23 94.418 21.3262C95.9121 21.5734 97.1762 20.8784 98.2738 19.9323Z" fill="#2F2E41"/>
<path d="M74.7702 112.478C75.1339 113.426 75.698 114.282 76.4229 114.986C77.1477 115.689 78.0156 116.222 78.9654 116.548C79.9153 116.874 80.9239 116.985 81.9204 116.872C82.9168 116.759 83.8768 116.426 84.7327 115.896L119.049 134.315L120.16 125.827L86.8155 105.862C85.843 104.461 84.3982 103.471 82.7548 103.08C81.1114 102.688 79.3837 102.922 77.8989 103.738C76.4142 104.553 75.2756 105.893 74.699 107.504C74.1223 109.115 74.1477 110.884 74.7702 112.478Z" fill="#9F616A"/>
<path d="M120.5 113.948C119.941 114.793 119.206 115.503 118.347 116.028C117.489 116.554 116.527 116.881 115.53 116.988C114.533 117.095 113.525 116.979 112.577 116.648C111.629 116.316 110.764 115.778 110.043 115.071L72.5886 125.419L72.9147 114.643L110.173 104.817C111.423 103.666 113.047 103.021 114.734 103.004C116.422 102.987 118.058 103.6 119.331 104.725C120.604 105.851 121.426 107.411 121.642 109.111C121.857 110.811 121.451 112.532 120.5 113.948Z" fill="#9F616A"/>
<path d="M135.056 69.3747L142.359 68.9102C142.359 68.9102 150.909 80.3651 146.166 92.7953C146.166 92.7953 146.988 137.447 128.051 135.613C109.114 133.779 103.131 133.779 103.131 133.779L108.815 117.68L121.531 113.693C121.531 113.693 117.612 96.1395 125.03 88.8359L135.056 69.3747Z" fill="#CBCBCB"/>
<path d="M82.3237 68.9837L81.2915 63.6117C81.2915 63.6117 66.07 63.2486 63.0603 86.6678C63.0603 86.6678 49.3722 121.717 62.7889 126.23C76.2056 130.743 90.9638 126.23 90.9638 126.23L89.8521 110.773L75.0895 107.714C75.0895 107.714 82.7156 97.6968 78.5631 89.0076L82.3237 68.9837Z" fill="#CBCBCB"/>
<path d="M228.564 330.309H0.598335C0.439646 330.309 0.287466 330.245 0.175257 330.131C0.0630473 330.017 0 329.862 0 329.701C0 329.54 0.0630473 329.386 0.175257 329.272C0.287466 329.158 0.439646 329.094 0.598335 329.094H228.564C228.723 329.094 228.875 329.158 228.987 329.272C229.099 329.386 229.162 329.54 229.162 329.701C229.162 329.862 229.099 330.017 228.987 330.131C228.875 330.245 228.723 330.309 228.564 330.309Z" fill="#CBCBCB"/>
</svg>
