<svg width="34" height="34" viewBox="0 0 34 34" fill="none" xmlns="http://www.w3.org/2000/svg">
<g clip-path="url(#clip0_1029_867)">
<path d="M25.6019 0.855038L8.61222 0.261746C4.4726 0.117188 0.999596 3.35582 0.855038 7.49543L0.261746 24.4851C0.117188 28.6247 3.35582 32.0977 7.49543 32.2423L24.4851 32.8355C28.6247 32.9801 32.0977 29.7415 32.2423 25.6019L32.8355 8.61222C32.9801 4.4726 29.7415 0.999596 25.6019 0.855038Z" fill="url(#paint0_radial_1029_867)"/>
<path d="M25.6019 0.855038L8.61222 0.261746C4.4726 0.117188 0.999596 3.35582 0.855038 7.49543L0.261746 24.4851C0.117188 28.6247 3.35582 32.0977 7.49543 32.2423L24.4851 32.8355C28.6247 32.9801 32.0977 29.7415 32.2423 25.6019L32.8355 8.61222C32.9801 4.4726 29.7415 0.999596 25.6019 0.855038Z" fill="url(#paint1_radial_1029_867)"/>
<path d="M16.9858 4.05542C13.5931 3.93695 13.1667 3.93694 11.8322 3.951C10.5001 3.96552 9.58492 4.14432 8.77987 4.42552C7.94698 4.71588 7.23512 5.1184 6.51654 5.78873C5.79734 6.45892 5.34613 7.14096 4.99739 7.95116C4.65984 8.73486 4.41738 9.63569 4.31112 10.9629C4.20499 12.2934 4.1745 12.7188 4.05602 16.1117C3.93754 19.5045 3.93771 19.9295 3.95165 21.264C3.96642 22.5961 4.14521 23.5113 4.42616 24.3163C4.71677 25.1492 5.1193 25.8611 5.78963 26.5797C6.45956 27.2989 7.14157 27.7511 7.95155 28.0988C8.73565 28.4355 9.63625 28.6777 10.9638 28.7851C12.2943 28.8922 12.7192 28.9219 16.1118 29.0404C19.5048 29.1589 19.9299 29.1588 21.2644 29.1448C22.5965 29.1303 23.5126 28.9515 24.3183 28.6703C25.1508 28.3799 25.8617 27.9764 26.5801 27.3057C27.2993 26.6356 27.7504 25.9536 28.0992 25.1434C28.434 24.3595 28.6766 23.4587 28.7855 22.1315C28.8919 20.8011 28.9223 20.3769 29.0408 16.9841C29.1593 13.5913 29.1585 13.165 29.1452 11.8304C29.1292 10.4983 28.95 9.58321 28.6707 8.77822C28.3792 7.94529 27.9768 7.23344 27.3061 6.51472C26.6356 5.79563 25.9555 5.3445 25.1443 4.9971C24.3587 4.66023 23.4577 4.41789 22.1299 4.31061C20.7994 4.20348 20.3757 4.1738 16.9819 4.05529L16.9858 4.05542ZM15.7865 6.26754C16.1192 6.27866 16.4903 6.29212 16.9072 6.30668C20.2428 6.42316 20.6376 6.44895 21.9527 6.55479C23.1688 6.65304 23.8228 6.87963 24.2571 7.06602C24.8323 7.31275 25.2384 7.59797 25.6601 8.05059C26.0821 8.50309 26.3381 8.92891 26.5448 9.51986C26.7004 9.96556 26.8811 10.6338 26.894 11.8537C26.9079 13.1728 26.9071 13.5687 26.7906 16.9027C26.6742 20.2367 26.6474 20.6318 26.5416 21.9466C26.4433 23.1626 26.2168 23.8166 26.0304 24.2505C25.7836 24.8256 25.4979 25.2313 25.0454 25.653C24.5929 26.075 24.1684 26.331 23.5772 26.5372C23.1313 26.6936 22.4627 26.8735 21.2427 26.8866C19.9237 26.9005 19.5277 26.8997 16.1921 26.7832C12.8564 26.6667 12.4615 26.6399 11.1467 26.5341C9.93069 26.4353 9.2767 26.2088 8.84194 26.0223C8.26695 25.7755 7.8599 25.4904 7.43794 25.0379C7.01597 24.5854 6.75989 24.1605 6.55328 23.5693C6.39762 23.1235 6.21695 22.4553 6.20402 21.2354C6.19017 19.9163 6.19199 19.5204 6.30849 16.1843C6.42498 12.8482 6.45071 12.4552 6.55654 11.1404C6.65479 9.92433 6.88138 9.27034 7.06778 8.83595C7.31462 8.26084 7.60025 7.85394 8.05288 7.43198C8.5055 7.01002 8.9312 6.75384 9.52214 6.54734C9.9685 6.39095 10.6369 6.21104 11.8569 6.19761C13.0111 6.18576 13.4583 6.18574 15.7866 6.26442L15.7865 6.26754ZM23.5032 8.61378C22.6755 8.58488 21.9807 9.23227 21.9518 10.06C21.9229 10.8876 22.5709 11.5826 23.3985 11.6115C24.2261 11.6404 24.921 10.9923 24.9499 10.1647C24.9788 9.33709 24.3308 8.64218 23.5032 8.61328L23.5032 8.61378ZM16.7736 10.1325C13.2307 10.0088 10.2579 12.7809 10.1342 16.3239C10.0105 19.8669 12.7827 22.8383 16.3255 22.962C19.8685 23.0857 22.8403 20.3149 22.964 16.7719C23.0877 13.2291 20.3163 10.2562 16.7733 10.1325L16.7736 10.1325ZM16.695 12.3837C18.9947 12.464 20.7941 14.3934 20.7137 16.6934C20.6334 18.9931 18.7038 20.7925 16.4041 20.7121C14.1044 20.6318 12.3051 18.7022 12.3854 16.4025C12.4658 14.1025 14.3951 12.3034 16.695 12.3837Z" fill="white"/>
</g>
<defs>
<radialGradient id="paint0_radial_1029_867" cx="0" cy="0" r="1" gradientUnits="userSpaceOnUse" gradientTransform="translate(8.40881 34.7403) rotate(-88) scale(31.7144 29.4969)">
<stop stop-color="#FFDD55"/>
<stop offset="0.1" stop-color="#FFDD55"/>
<stop offset="0.5" stop-color="#FF543E"/>
<stop offset="1" stop-color="#C837AB"/>
</radialGradient>
<radialGradient id="paint1_radial_1029_867" cx="0" cy="0" r="1" gradientUnits="userSpaceOnUse" gradientTransform="translate(-4.32051 2.11673) rotate(80.68) scale(14.1765 58.436)">
<stop stop-color="#3771C8"/>
<stop offset="0.128" stop-color="#3771C8"/>
<stop offset="1" stop-color="#6600FF" stop-opacity="0"/>
</radialGradient>
<clipPath id="clip0_1029_867">
<rect width="32" height="32" fill="white" transform="translate(1.11678) rotate(2)"/>
</clipPath>
</defs>
</svg>
