<svg width="200" height="52" viewBox="0 0 200 52" fill="none" xmlns="http://www.w3.org/2000/svg">
<path fill-rule="evenodd" clip-rule="evenodd" d="M183.725 45.0667L186.618 49.0667V51.4667L187.703 51.7333V49.3333L190.958 45.8667V45.0667H189.873L187.342 47.7333L185.533 45.8667L183.725 45.0667ZM166.365 45.0667L166.004 51.4667L167.089 51.7333L167.45 45.3333L166.365 45.0667ZM133.816 45.0667V51.7333H134.901L135.262 49.3333H137.432L139.241 51.4667L140.687 51.7333L138.879 49.3333L140.687 48L140.325 45.6L139.241 45.0667H133.816ZM134.901 46.4L135.986 45.6H138.156L139.602 46.6667V47.4667L137.432 48.5333L135.624 48.2667L134.901 47.7333V46.4ZM120.796 45.0667V50.6667L124.051 52L126.944 51.4667L128.391 50.1333V45.0667H127.306V49.3333L125.859 50.9333H122.966L121.881 50.1333L121.519 45.0667H120.796ZM94.0325 45.0667L97.2875 49.3333V51.7333H98.0108L98.3725 48.8L100.542 46.6667L101.266 45.0667L99.8192 45.6L98.0108 47.7333H97.2875L96.2025 46.1333L94.0325 45.0667ZM74.8644 45.0667V51.7333L75.9494 51.4667V49.8667L77.0344 49.0667H77.7577L81.0127 51.7333H82.0976L78.8427 48.5333V47.7333L81.736 45.0667H80.651L76.6727 48L75.9494 47.7333V45.0667H74.8644ZM37.9747 45.0667L37.613 51.4667L43.3996 51.7333L43.038 50.9333H39.4213L38.698 50.4L39.0597 45.3333L37.9747 45.0667ZM24.5931 45.0667V51.7333H25.3165V48L26.0398 47.4667L30.7414 51.4667L31.8264 51.7333L32.1881 45.0667L31.1031 45.3333L30.7414 49.6L27.1248 46.4L24.5931 45.0667ZM11.2116 45.0667L10.8499 49.6L11.5732 50.9333L14.1049 52L16.9982 51.7333L18.8065 50.4L19.1682 45.0667H17.7215V49.8667L15.5515 51.2L13.7432 50.9333L12.2966 49.8667V45.0667H11.2116ZM172.514 44.8L171.79 45.0667L172.152 45.8667L175.045 46.1333V51.7333H176.13V46.1333L179.024 45.6V45.0667L172.514 44.8ZM156.6 44.8L154.43 45.6L153.345 46.6667V50.1333L155.515 51.7333H159.494L160.94 50.9333L160.579 50.4L157.685 51.2L156.239 50.9333L154.069 49.0667L154.43 47.2L156.239 45.8667H160.94L159.132 44.8H156.6ZM109.584 44.8L106.329 46.4L105.606 48.8L106.691 50.9333L108.499 51.7333L111.031 52L113.201 51.4667L115.371 49.3333V47.2L113.562 45.3333L109.584 44.8ZM110.307 45.6L112.116 45.8667L113.924 47.2L113.562 49.8667L110.669 51.2L108.499 50.6667L107.052 49.0667L107.776 46.6667L110.307 45.6ZM65.0995 44.8L62.5678 46.1333L61.4828 48.8L61.8445 49.8667L63.6528 51.4667L67.2694 52L69.0778 51.4667L69.4394 50.4L67.9928 50.9333L64.3761 50.6667L62.9295 49.0667V47.7333L63.6528 46.6667L65.8228 45.6L69.4394 46.1333V45.6L67.6311 44.8H65.0995ZM49.9096 45.0667L48.4629 45.8667L47.3779 47.4667L48.1013 50.6667L49.9096 51.7333H54.2495L56.0579 50.6667L57.1429 49.0667L56.7812 46.9333L54.6112 45.0667H49.9096ZM51.7179 45.6L53.8879 45.8667L55.3345 46.9333L56.0579 48.5333L55.3345 49.8667L52.8029 51.2L50.6329 50.9333L48.4629 48.8L49.5479 46.4L51.7179 45.6ZM108.861 33.3333V35.4667L111.392 37.0667H146.112L147.559 36.5333L148.644 35.2L148.282 33.0667L146.474 32H110.669L108.861 33.3333ZM110.669 18.6667L111.392 20.2667L112.839 21.0667H144.304L145.75 20.5333L146.474 19.4667L145.75 16.8L143.942 16H113.562L111.392 17.0667L110.669 18.6667ZM156.6 0.533333L155.154 1.86667V3.73333L157.685 5.33333H187.342L187.703 6.13333L155.515 32.5333L154.792 33.8667L155.154 36L156.962 37.0667H196.745L198.553 36.5333L200 34.1333L199.277 32.8L197.468 32H167.45L166.727 31.4667L199.277 4.53333L200 3.46667L199.638 1.06667L198.192 0.266667L156.6 0.533333ZM108.861 1.86667L109.584 4.53333L111.392 5.33333H146.112L148.644 3.46667L148.282 1.6L146.474 0.266667H110.669L108.861 1.86667ZM67.6311 0.266667L66.1844 1.6L66.9078 36.5333L67.9928 37.0667H87.5226L91.5009 36.5333L95.4792 35.2L100.181 32L102.351 28V24.5333L100.542 21.0667L98.0108 18.9333L94.0325 17.0667L96.9259 14.6667L98.3725 12.5333L98.7342 8.8L97.2875 5.33333L93.3092 2.13333L88.2459 0.533333L67.6311 0.266667ZM73.7794 20.5333L87.5226 20.2667L90.0542 20.8L93.6709 23.2L94.3942 24.2667L94.7559 26.6667L93.3092 29.3333L90.7776 30.9333L87.1609 32L74.141 31.7333L73.7794 20.5333ZM73.7794 5.86667L74.5027 5.33333H84.991L88.6076 6.4L91.1392 9.06667V11.4667L90.0542 13.3333L87.8843 14.6667L84.2676 15.4667L74.141 15.2L73.7794 5.86667ZM54.9729 0L53.5262 0.266667L52.0796 1.6V35.2L53.5262 36.8L57.1429 37.0667L59.3128 35.2V1.86667L57.5045 0.266667L54.9729 0ZM1.44665 0.266667L0 1.33333L0.723327 4.53333L18.8065 35.4667L20.9765 37.0667H23.8698L26.0398 35.7333L44.123 5.33333L45.208 3.2V1.6L43.3996 0.266667H39.4213L37.613 1.6L30.7414 14.9333L27.8481 18.9333L23.5081 27.2L22.4231 27.7333L7.23327 1.33333L4.70163 0L1.44665 0.266667Z" fill="#CF0738"/>
</svg>
