<svg width="22" height="24" viewBox="0 0 22 24" fill="none" xmlns="http://www.w3.org/2000/svg">
<g clip-path="url(#clip0_295_10311)">
<path d="M10.2741 11.4414L0.0910645 21.9696C0.205418 22.3695 0.410916 22.7383 0.691849 23.0479C0.972781 23.3574 1.32171 23.5995 1.71197 23.7555C2.10222 23.9116 2.52346 23.9775 2.9435 23.9483C3.36354 23.9191 3.77124 23.7955 4.13545 23.5869L15.5932 17.1473L10.2741 11.4414Z" fill="#EA4335"/>
<path d="M20.571 9.65218L15.6162 6.85156L10.0391 11.6812L15.6389 17.1326L20.5559 14.362C20.9915 14.1369 21.3564 13.7984 21.6109 13.3833C21.8655 12.9682 22.0001 12.4922 22.0001 12.007C22.0001 11.5218 21.8655 11.0459 21.6109 10.6307C21.3564 10.2156 20.9915 9.87718 20.5559 9.6521L20.571 9.65218Z" fill="#FBBC04"/>
<path d="M0.0911203 1.99219C0.0296057 2.21675 -0.00103337 2.44845 2.6586e-05 2.68106V21.2812C0.000633999 21.5138 0.0312448 21.7453 0.0911203 21.9702L10.6232 11.7116L0.0911203 1.99219Z" fill="#4285F4"/>
<path d="M10.3499 11.9808L15.616 6.85154L4.17344 0.381885C3.74292 0.133083 3.25327 0.00131666 2.75435 5.20116e-06C1.51625 -0.00236936 0.427768 0.808542 0.0910645 1.98437L10.3499 11.9808Z" fill="#34A853"/>
</g>
<defs>
<clipPath id="clip0_295_10311">
<rect width="22" height="24" fill="white"/>
</clipPath>
</defs>
</svg>
