<svg width="128" height="128" viewBox="0 0 128 128" fill="none" xmlns="http://www.w3.org/2000/svg">
<path d="M110.91 63.9994C110.91 38.0921 89.9075 17.0903 64.0003 17.0903C38.0931 17.0903 17.0913 38.0921 17.0913 63.9994C17.0913 89.9066 38.0931 110.909 64.0003 110.909C89.9075 110.909 110.91 89.9066 110.91 63.9994ZM121.334 63.9994C121.334 95.6639 95.6649 121.333 64.0003 121.333C32.336 121.333 6.66699 95.6639 6.66699 63.9994C6.66699 32.335 32.336 6.66602 64.0003 6.66602C95.6649 6.66602 121.334 32.335 121.334 63.9994Z" fill="#CF0738"/>
<path opacity="0.4" d="M60 32C60 29.7909 61.7909 28 64 28C70.3195 28 76.5275 29.6634 82 32.8231C87.4725 35.9827 92.0171 40.5273 95.1771 46C98.3365 51.4727 100 57.6805 100 64C100 70.3195 98.3365 76.5275 95.1771 82C92.0171 87.4725 87.4725 92.0171 82 95.1771C76.5275 98.3365 70.3195 100 64 100C57.6805 100 51.4726 98.3365 45.9999 95.1771C40.5273 92.0171 35.9827 87.4725 32.823 82C32.2926 81.0811 32.1488 79.9893 32.4234 78.9648C32.698 77.9403 33.3684 77.0661 34.2871 76.536L60 61.6907V32Z" fill="#CF0738"/>
</svg>
