<svg width="28" height="32" viewBox="0 0 28 32" fill="none" xmlns="http://www.w3.org/2000/svg">
<g clip-path="url(#clip0_1029_863)">
<path d="M20.7506 11.5229C22.7935 12.9954 25.2962 13.8618 27.9992 13.8618V8.61715C27.4876 8.61735 26.9774 8.5635 26.4769 8.45649V12.5848C23.7742 12.5848 21.2718 11.7185 19.2284 10.2461V20.9491C19.2284 26.3033 14.9239 30.6434 9.61436 30.6434C7.63325 30.6434 5.79182 30.0395 4.26221 29.0037C6.00805 30.8037 8.44274 31.9203 11.1362 31.9203C16.4461 31.9203 20.7508 27.5802 20.7508 22.2258V11.5229H20.7506ZM22.6286 6.23161C21.5845 5.08148 20.8989 3.59514 20.7506 1.95188V1.27734H19.3081C19.6712 3.36584 20.9098 5.15012 22.6286 6.23161ZM7.62046 24.8951C7.03709 24.124 6.72177 23.1805 6.72325 22.2104C6.72325 19.7616 8.69211 17.7761 11.1212 17.7761C11.5738 17.7759 12.0238 17.8459 12.4553 17.9839V12.6219C11.9511 12.5523 11.4422 12.5226 10.9336 12.5335V16.707C10.502 16.569 10.0518 16.4989 9.59894 16.4993C7.16994 16.4993 5.20119 18.4846 5.20119 20.9337C5.20119 22.6655 6.18524 24.1647 7.62046 24.8951Z" fill="#FF004F"/>
<path d="M19.2283 10.246C21.2717 11.7184 23.7739 12.5847 26.4768 12.5847V8.45638C24.968 8.1323 23.6325 7.33737 22.6283 6.23161C20.9095 5.15001 19.671 3.36573 19.3079 1.27734H15.5188V22.2255C15.5102 24.6677 13.5447 26.6451 11.1208 26.6451C9.69261 26.6451 8.42364 25.9586 7.62007 24.895C6.18507 24.1647 5.20091 22.6654 5.20091 20.9338C5.20091 18.485 7.16966 16.4994 9.59866 16.4994C10.0641 16.4994 10.5126 16.5725 10.9334 16.7071V12.5336C5.71705 12.6423 1.52197 16.94 1.52197 22.2256C1.52197 24.8642 2.56661 27.2562 4.26214 29.0039C5.79175 30.0395 7.63308 30.6436 9.6143 30.6436C14.9239 30.6436 19.2284 26.3032 19.2284 20.9491L19.2283 10.246Z" fill="black"/>
<path d="M26.477 8.45572V7.3397C25.1164 7.34169 23.7828 6.95751 22.6285 6.23106C23.6503 7.35902 24.9957 8.13686 26.477 8.45595M19.308 1.27669C19.2734 1.07714 19.2468 0.876257 19.2283 0.674538V0H13.9965V20.9484C13.9882 23.3903 12.0227 25.3677 9.59875 25.3677C8.91158 25.3688 8.23379 25.2067 7.62016 24.8947C8.42373 25.9581 9.6927 26.6444 11.1209 26.6444C13.5447 26.6444 15.5104 24.6673 15.5189 22.2251V1.2768L19.308 1.27669ZM10.9338 12.533V11.3447C10.4966 11.2844 10.0559 11.2543 9.61461 11.2544C4.30445 11.2544 0 15.5947 0 20.9484C0 24.305 1.6917 27.2631 4.26245 29.0031C2.56692 27.2555 1.52228 24.8634 1.52228 22.225C1.52228 16.9395 5.71725 12.6417 10.9338 12.533Z" fill="#00F2EA"/>
</g>
<defs>
<clipPath id="clip0_1029_863">
<rect width="28" height="32" fill="white"/>
</clipPath>
</defs>
</svg>
